<svg xmlns="http://www.w3.org/2000/svg" viewBox="0 0 760 420" role="img" aria-labelledby="title desc">
  <title id="title">YSYSTEM Edicion Revisada</title>
  <desc id="desc">Logo de YSYSTEM con dado isometrico y texto Edicion Revisada.</desc>
  <defs>
    <filter id="rough" x="-5%" y="-5%" width="110%" height="110%">
      <feTurbulence type="fractalNoise" baseFrequency="0.018" numOctaves="2" seed="7"/>
      <feDisplacementMap in="SourceGraphic" scale="1.4"/>
    </filter>
  </defs>
  <rect width="760" height="420" fill="#f7f5f1"/>
  <g filter="url(#rough)" fill="#0a0a0a">
    <rect x="0" y="0" width="760" height="46"/>
    <rect x="0" y="374" width="760" height="46"/>
    <rect x="0" y="48" width="760" height="12" opacity=".35"/>
    <rect x="0" y="360" width="760" height="12" opacity=".35"/>
  </g>
  <g transform="translate(260 50)" fill="none" stroke="#000" stroke-width="10" stroke-linecap="round" stroke-linejoin="round">
    <path d="M115 8 218 62v116l-103 58L12 178V62Z"/>
    <path d="M12 62 115 118l103-56"/>
    <path d="M115 118v118"/>
    <path d="M35 79 115 37l80 42-80 44Z" fill="#000" stroke="none"/>
    <path d="M36 91v70l66 37v-68Z" fill="#000" stroke="none"/>
    <path d="M194 91v70l-66 37v-68Z" fill="#000" stroke="none"/>
    <circle cx="115" cy="46" r="11" fill="#f7f5f1" stroke="none"/>
    <circle cx="61" cy="150" r="8" fill="#f7f5f1" stroke="none"/>
    <circle cx="82" cy="163" r="8" fill="#f7f5f1" stroke="none"/>
    <circle cx="50" cy="179" r="8" fill="#f7f5f1" stroke="none"/>
    <circle cx="171" cy="143" r="8" fill="#f7f5f1" stroke="none"/>
    <circle cx="151" cy="163" r="8" fill="#f7f5f1" stroke="none"/>
    <circle cx="188" cy="168" r="8" fill="#f7f5f1" stroke="none"/>
    <circle cx="162" cy="188" r="8" fill="#f7f5f1" stroke="none"/>
    <circle cx="198" cy="195" r="8" fill="#f7f5f1" stroke="none"/>
  </g>
  <text x="380" y="338" text-anchor="middle" font-family="Avenir Next, Arial Black, Arial, sans-serif" font-size="68" font-weight="900" letter-spacing="-2" fill="#000">YSYSTEM</text>
  <text x="380" y="386" text-anchor="middle" font-family="Avenir Next, Arial, sans-serif" font-size="28" font-weight="800" fill="#111">EDICION REVISADA</text>
</svg>
