<?xml version="1.0" standalone="no"?>
<!DOCTYPE svg PUBLIC "-//W3C//DTD SVG 20010904//EN"
 "http://www.w3.org/TR/2001/REC-SVG-20010904/DTD/svg10.dtd">
<svg version="1.0" xmlns="http://www.w3.org/2000/svg"
 width="670.000000pt" height="670.000000pt" viewBox="0 0 670.000000 670.000000"
 preserveAspectRatio="xMidYMid meet">
<metadata>
Created by potrace 1.11, written by Peter Selinger 2001-2013
</metadata>
<g transform="translate(0.000000,670.000000) scale(0.100000,-0.100000)"
fill="#000000" stroke="none">
<path d="M3129 6695 c-2 -1 -38 -6 -79 -10 -109 -9 -149 -14 -184 -20 -17 -2
-44 -7 -61 -10 -16 -3 -43 -7 -60 -10 -38 -6 -137 -28 -229 -50 -93 -22 -338
-103 -421 -140 -16 -7 -55 -23 -85 -35 -209 -85 -554 -291 -725 -432 -158
-130 -193 -161 -329 -294 -150 -146 -378 -446 -505 -664 -53 -91 -167 -325
-201 -413 -18 -45 -38 -95 -45 -112 -44 -103 -133 -430 -151 -555 -3 -19 -7
-44 -9 -55 -12 -77 -15 -94 -19 -125 -16 -117 -21 -230 -21 -425 1 -234 9
-355 35 -505 5 -30 12 -75 15 -100 4 -24 8 -47 10 -51 2 -3 7 -21 10 -40 3
-19 8 -42 11 -51 3 -9 7 -26 9 -39 2 -12 12 -47 21 -78 9 -31 17 -63 19 -72
17 -84 143 -406 222 -563 111 -222 305 -515 444 -671 10 -11 32 -36 49 -55
118 -132 275 -279 422 -396 135 -108 400 -285 419 -280 4 0 15 -6 25 -16 18
-15 231 -123 319 -160 209 -89 494 -175 710 -213 237 -41 338 -50 610 -50 184
0 339 7 401 19 10 2 42 7 69 10 67 9 191 32 273 52 37 8 74 17 82 19 8 1 64
17 124 35 99 29 152 46 211 70 11 4 67 27 125 50 127 51 290 133 425 213 796
475 1356 1254 1558 2167 14 63 29 135 32 160 3 25 8 56 11 70 5 28 9 65 21
185 15 155 8 590 -11 690 -2 11 -7 46 -11 79 -8 71 -9 73 -40 221 -29 139 -25
123 -60 245 -101 348 -263 684 -479 990 -91 130 -84 121 -163 215 -103 124
-270 294 -378 385 -27 23 -61 52 -75 64 -80 69 -301 226 -319 226 -5 0 -11 4
-13 8 -5 13 -183 115 -306 175 -188 93 -480 202 -650 242 -158 38 -323 69
-427 80 -27 3 -66 8 -85 11 -40 6 -536 14 -541 9z"/>
</g>
</svg>
